<svg xmlns="http://www.w3.org/2000/svg" viewBox="0 0 1600 900" preserveAspectRatio="xMidYMid slice"><defs>
  <linearGradient id="gold" x1="0" y1="0" x2="0" y2="1">
    <stop offset="0" stop-color="#fff6c2"/><stop offset=".3" stop-color="#ffd84f"/>
    <stop offset=".62" stop-color="#e3a322"/><stop offset="1" stop-color="#96580d"/>
  </linearGradient>
  <linearGradient id="goldH" x1="0" y1="0" x2="1" y2="1">
    <stop offset="0" stop-color="#fff3b0"/><stop offset=".45" stop-color="#f7c63c"/><stop offset="1" stop-color="#a8660f"/>
  </linearGradient>
  <linearGradient id="red" x1="0" y1="0" x2="0" y2="1">
    <stop offset="0" stop-color="#ff6a4c"/><stop offset=".5" stop-color="#d4241c"/><stop offset="1" stop-color="#7a0c08"/>
  </linearGradient>
  <linearGradient id="sky" x1="0" y1="0" x2="0" y2="1">
    <stop offset="0" stop-color="#8fd3ea"/><stop offset=".5" stop-color="#cdeee8"/><stop offset="1" stop-color="#e9f5e2"/>
  </linearGradient>
  <linearGradient id="mt1" x1="0" y1="0" x2="0" y2="1"><stop offset="0" stop-color="#7fb89a"/><stop offset="1" stop-color="#c9e6d2"/></linearGradient>
  <linearGradient id="mt2" x1="0" y1="0" x2="0" y2="1"><stop offset="0" stop-color="#4f9a6e"/><stop offset="1" stop-color="#a9d4b0"/></linearGradient>
  <linearGradient id="mt3" x1="0" y1="0" x2="0" y2="1"><stop offset="0" stop-color="#2f7a4e"/><stop offset="1" stop-color="#7fb888"/></linearGradient>
  <linearGradient id="floor" x1="0" y1="0" x2="0" y2="1"><stop offset="0" stop-color="#c9bda2"/><stop offset="1" stop-color="#8e8067"/></linearGradient>
  <linearGradient id="roof" x1="0" y1="0" x2="0" y2="1"><stop offset="0" stop-color="#7a4a3a"/><stop offset="1" stop-color="#3a2018"/></linearGradient>
  <radialGradient id="fog" cx=".5" cy=".5" r=".5"><stop offset="0" stop-color="#fff" stop-opacity=".85"/><stop offset="1" stop-color="#fff" stop-opacity="0"/></radialGradient>
  <filter id="soft" x="-5%" y="-5%" width="110%" height="110%"><feGaussianBlur stdDeviation="4"/></filter></defs>
  <rect width="1600" height="900" fill="url(#sky)"/>
  <g filter="url(#soft)">
    <path d="M0 540 C104 288 195 120 260 120 C338 120 416 330 520 540 Z" fill="url(#mt1)"/><path d="M460 540 C580 252 685 60 760 60 C850 60 940 300 1060 540 Z" fill="url(#mt1)"/><path d="M970 540 C1082 276 1180 100 1250 100 C1334 100 1418 320 1530 540 Z" fill="url(#mt1)"/>
    <path d="M-140 600 C-52 384 25 240 80 240 C146 240 212 420 300 600 Z" fill="url(#mt2)"/><path d="M320 600 C416 372 500 220 560 220 C632 220 704 410 800 600 Z" fill="url(#mt2)"/><path d="M760 600 C864 360 955 200 1020 200 C1098 200 1176 400 1280 600 Z" fill="url(#mt2)"/><path d="M1320 600 C1408 378 1485 230 1540 230 C1606 230 1672 415 1760 600 Z" fill="url(#mt2)"/>
    <circle cx="1104" cy="504" r="27" fill="#5aa566"/><circle cx="136" cy="475" r="44" fill="#3f8a52"/><circle cx="1449" cy="417" r="47" fill="#5aa566"/><circle cx="1057" cy="382" r="36" fill="#3f8a52"/><circle cx="1434" cy="426" r="46" fill="#5aa566"/><circle cx="406" cy="383" r="47" fill="#3f8a52"/><circle cx="436" cy="400" r="36" fill="#5aa566"/><circle cx="393" cy="393" r="49" fill="#3f8a52"/><circle cx="652" cy="538" r="29" fill="#3f8a52"/><circle cx="348" cy="519" r="45" fill="#5aa566"/><circle cx="818" cy="509" r="42" fill="#3f8a52"/><circle cx="1018" cy="472" r="31" fill="#5aa566"/><circle cx="975" cy="381" r="52" fill="#3f8a52"/><circle cx="560" cy="520" r="28" fill="#3f8a52"/><circle cx="1334" cy="425" r="54" fill="#3f8a52"/><circle cx="562" cy="501" r="31" fill="#5aa566"/><circle cx="123" cy="393" r="45" fill="#5aa566"/><circle cx="405" cy="529" r="22" fill="#5aa566"/><circle cx="1526" cy="426" r="38" fill="#5aa566"/><circle cx="1355" cy="473" r="53" fill="#5aa566"/><circle cx="864" cy="398" r="30" fill="#5aa566"/><circle cx="248" cy="420" r="46" fill="#3f8a52"/><circle cx="128" cy="432" r="47" fill="#5aa566"/><circle cx="660" cy="396" r="30" fill="#5aa566"/><circle cx="522" cy="492" r="45" fill="#3f8a52"/><circle cx="1254" cy="529" r="41" fill="#3f8a52"/><circle cx="579" cy="444" r="22" fill="#3f8a52"/><circle cx="1468" cy="430" r="46" fill="#3f8a52"/><circle cx="1306" cy="396" r="37" fill="#5aa566"/><circle cx="336" cy="475" r="23" fill="#3f8a52"/><circle cx="1062" cy="421" r="43" fill="#3f8a52"/><circle cx="405" cy="538" r="42" fill="#3f8a52"/><circle cx="1188" cy="386" r="41" fill="#5aa566"/><circle cx="31" cy="403" r="31" fill="#3f8a52"/><circle cx="1028" cy="532" r="40" fill="#5aa566"/><circle cx="1237" cy="425" r="22" fill="#3f8a52"/><circle cx="67" cy="416" r="50" fill="#3f8a52"/><circle cx="67" cy="504" r="40" fill="#3f8a52"/><circle cx="1431" cy="504" r="53" fill="#3f8a52"/><circle cx="436" cy="509" r="29" fill="#3f8a52"/>
    <ellipse cx="400" cy="420" rx="420" ry="60" fill="url(#fog)"/><ellipse cx="1200" cy="380" rx="460" ry="70" fill="url(#fog)"/>
    <g transform="translate(1390 40)">
    <rect x="-32.4" y="256" width="64.8" height="48" fill="#e9e1cf"/>
        <rect x="-32.4" y="266" width="64.8" height="10" fill="#b9402a"/>
        <path d="M-92 262 C-36 242 36 242 92 262 L43.199999999999996 234 H-43.199999999999996 Z" fill="url(#roof)"/><rect x="-44.1" y="194" width="88.2" height="48" fill="#e9e1cf"/>
        <rect x="-44.1" y="204" width="88.2" height="10" fill="#b9402a"/>
        <path d="M-118 200 C-49 180 49 180 118 200 L58.8 172 H-58.8 Z" fill="url(#roof)"/><rect x="-55.800000000000004" y="132" width="111.60000000000001" height="48" fill="#e9e1cf"/>
        <rect x="-55.800000000000004" y="142" width="111.60000000000001" height="10" fill="#b9402a"/>
        <path d="M-144 138 C-62 118 62 118 144 138 L74.39999999999999 110 H-74.39999999999999 Z" fill="url(#roof)"/><rect x="-67.5" y="70" width="135" height="48" fill="#e9e1cf"/>
        <rect x="-67.5" y="80" width="135" height="10" fill="#b9402a"/>
        <path d="M-170 76 C-75 56 75 56 170 76 L90 48 H-90 Z" fill="url(#roof)"/>
    <path d="M0 0 V70" stroke="#6a3a2a" stroke-width="6"/></g>
  </g>
  <path d="M1300 600 C1380 456 1450 360 1500 360 C1560 360 1620 480 1700 600 Z" fill="url(#mt3)"/><path d="M-90 600 C-18 468 45 380 90 380 C144 380 198 490 270 600 Z" fill="url(#mt3)"/>
  <rect x="0" y="600" width="1600" height="300" fill="url(#floor)"/>
  <path d="M-60 600 L-260 900" stroke="#9e917a" stroke-width="3" opacity=".55"/><path d="M20 600 L-160 900" stroke="#9e917a" stroke-width="3" opacity=".55"/><path d="M100 600 L-60 900" stroke="#9e917a" stroke-width="3" opacity=".55"/><path d="M180 600 L40 900" stroke="#9e917a" stroke-width="3" opacity=".55"/><path d="M260 600 L140 900" stroke="#9e917a" stroke-width="3" opacity=".55"/><path d="M340 600 L240 900" stroke="#9e917a" stroke-width="3" opacity=".55"/><path d="M420 600 L340 900" stroke="#9e917a" stroke-width="3" opacity=".55"/><path d="M500 600 L440 900" stroke="#9e917a" stroke-width="3" opacity=".55"/><path d="M580 600 L540 900" stroke="#9e917a" stroke-width="3" opacity=".55"/><path d="M660 600 L640 900" stroke="#9e917a" stroke-width="3" opacity=".55"/><path d="M740 600 L740 900" stroke="#9e917a" stroke-width="3" opacity=".55"/><path d="M820 600 L840 900" stroke="#9e917a" stroke-width="3" opacity=".55"/><path d="M900 600 L940 900" stroke="#9e917a" stroke-width="3" opacity=".55"/><path d="M980 600 L1040 900" stroke="#9e917a" stroke-width="3" opacity=".55"/><path d="M1060 600 L1140 900" stroke="#9e917a" stroke-width="3" opacity=".55"/><path d="M1140 600 L1240 900" stroke="#9e917a" stroke-width="3" opacity=".55"/><path d="M1220 600 L1340 900" stroke="#9e917a" stroke-width="3" opacity=".55"/><path d="M1300 600 L1440 900" stroke="#9e917a" stroke-width="3" opacity=".55"/><path d="M1380 600 L1540 900" stroke="#9e917a" stroke-width="3" opacity=".55"/><path d="M1460 600 L1640 900" stroke="#9e917a" stroke-width="3" opacity=".55"/><path d="M1540 600 L1740 900" stroke="#9e917a" stroke-width="3" opacity=".55"/><path d="M1620 600 L1840 900" stroke="#9e917a" stroke-width="3" opacity=".55"/>
  <path d="M0 650 H1600" stroke="#9e917a" stroke-width="3" opacity=".5"/><path d="M0 720 H1600" stroke="#9e917a" stroke-width="3" opacity=".5"/><path d="M0 810 H1600" stroke="#9e917a" stroke-width="3" opacity=".5"/>
  <path d="M0 600 H1600" stroke="#e4d9c0" stroke-width="4"/>
  <!-- سياج خشبي بعيد -->
  <rect x="1150" y="540" width="8" height="64" fill="#b95a34" opacity=".8"/><rect x="1188" y="540" width="8" height="64" fill="#b95a34" opacity=".8"/><rect x="1226" y="540" width="8" height="64" fill="#b95a34" opacity=".8"/><rect x="1264" y="540" width="8" height="64" fill="#b95a34" opacity=".8"/><rect x="1302" y="540" width="8" height="64" fill="#b95a34" opacity=".8"/><rect x="1340" y="540" width="8" height="64" fill="#b95a34" opacity=".8"/><rect x="1378" y="540" width="8" height="64" fill="#b95a34" opacity=".8"/><rect x="1416" y="540" width="8" height="64" fill="#b95a34" opacity=".8"/><rect x="1454" y="540" width="8" height="64" fill="#b95a34" opacity=".8"/><rect x="1492" y="540" width="8" height="64" fill="#b95a34" opacity=".8"/><rect x="1530" y="540" width="8" height="64" fill="#b95a34" opacity=".8"/><rect x="1568" y="540" width="8" height="64" fill="#b95a34" opacity=".8"/>
  <rect x="1140" y="552" width="460" height="7" fill="#b95a34" opacity=".8"/>
  <g>
    <rect x="30" y="620" width="16" height="200" fill="#a8452a" stroke="#4a1a0a" stroke-width="3"/>
    <rect x="190" y="620" width="16" height="200" fill="#a8452a" stroke="#4a1a0a" stroke-width="3"/>
    <rect x="20" y="650" width="200" height="14" fill="#c05a34" stroke="#4a1a0a" stroke-width="3"/>
    <rect x="20" y="740" width="200" height="14" fill="#c05a34" stroke="#4a1a0a" stroke-width="3"/>
    <path d="M60 250 V820" stroke="#6a3a1a" stroke-width="7"/><path d="M60 196 L72 250 H48 Z" fill="#d8dde3" stroke="#6a7078" stroke-width="2"/><path d="M100 250 V820" stroke="#6a3a1a" stroke-width="7"/><path d="M100 196 L112 250 H88 Z" fill="#d8dde3" stroke="#6a7078" stroke-width="2"/><path d="M140 250 V820" stroke="#6a3a1a" stroke-width="7"/><path d="M140 196 L152 250 H128 Z" fill="#d8dde3" stroke="#6a7078" stroke-width="2"/>
    <path d="M170 150 H290" stroke="#6a3a1a" stroke-width="12" stroke-linecap="round"/>
    <path d="M178 156 H282 V300 C270 330 250 336 236 360 C226 330 200 320 178 300 Z" fill="#f2c230" stroke="#9a6a0a" stroke-width="3"/>
    <path d="M230 200 C262 200 262 250 232 252 C212 252 212 228 232 226 C246 226 244 242 234 240" fill="none" stroke="#c98a0a" stroke-width="6" stroke-linecap="round"/>
  </g></svg>
