<svg xmlns="http://www.w3.org/2000/svg" viewBox="0 0 200 200"><defs>
  <linearGradient id="gold" x1="0" y1="0" x2="0" y2="1">
    <stop offset="0" stop-color="#fff6c2"/><stop offset=".3" stop-color="#ffd84f"/>
    <stop offset=".62" stop-color="#e3a322"/><stop offset="1" stop-color="#96580d"/>
  </linearGradient>
  <linearGradient id="goldH" x1="0" y1="0" x2="1" y2="1">
    <stop offset="0" stop-color="#fff3b0"/><stop offset=".45" stop-color="#f7c63c"/><stop offset="1" stop-color="#a8660f"/>
  </linearGradient>
  <radialGradient id="purp" cx=".35" cy=".3" r=".85">
    <stop offset="0" stop-color="#f0b8ff"/><stop offset=".4" stop-color="#a345d8"/><stop offset="1" stop-color="#4b1275"/>
  </radialGradient>
  <radialGradient id="purpIn" cx=".6" cy=".65" r=".8">
    <stop offset="0" stop-color="#d27af5"/><stop offset=".6" stop-color="#8a2ec0"/><stop offset="1" stop-color="#3d0d60"/>
  </radialGradient></defs>
  <g transform="rotate(-12 68 118)">
    <ellipse cx="68" cy="118" rx="46" ry="44" fill="url(#purp)" stroke="#4a2a10" stroke-width="3"/>
    <ellipse cx="68" cy="118" rx="41" ry="39" fill="none" stroke="url(#gold)" stroke-width="4"/>
    <ellipse cx="70" cy="121" rx="32" ry="30" fill="url(#purpIn)" stroke="#3a0f55" stroke-width="2"/>
    <ellipse cx="49.599999999999994" cy="98.2" rx="12.88" ry="7.04" fill="#fff" opacity=".45" transform="rotate(-25 49.599999999999994 98.2)"/>
  </g>
  <g transform="rotate(14 134 104)">
    <ellipse cx="134" cy="104" rx="44" ry="46" fill="url(#purp)" stroke="#4a2a10" stroke-width="3"/>
    <ellipse cx="134" cy="104" rx="39" ry="41" fill="none" stroke="url(#gold)" stroke-width="4"/>
    <path d="M104 104 C104 68 164 68 164 104" fill="none" stroke="#e7b6ff" stroke-width="3" opacity=".7"/>
               <circle cx="134" cy="104" r="9" fill="url(#gold)" stroke="#4a2a10" stroke-width="2"/>
               <circle cx="134" cy="104" r="4.5" fill="#e0306a"/>
    <ellipse cx="116.4" cy="83.3" rx="12.32" ry="7.36" fill="#fff" opacity=".45" transform="rotate(-25 116.4 83.3)"/>
  </g>
  <path d="M70 70 C62 38 84 22 98 36 C106 44 104 56 112 62 C122 70 138 58 142 44 C146 30 132 24 126 34" fill="none" stroke="#4a2a10" stroke-width="6.5" stroke-linecap="round"/>
  <path d="M70 70 C62 38 84 22 98 36 C106 44 104 56 112 62 C122 70 138 58 142 44 C146 30 132 24 126 34" fill="none" stroke="url(#goldH)" stroke-width="3.6" stroke-linecap="round"/>
  <circle cx="98" cy="36" r="4" fill="url(#gold)" stroke="#4a2a10" stroke-width="1.6"/></svg>
