<svg xmlns="http://www.w3.org/2000/svg" viewBox="0 0 200 200"><defs>
  <linearGradient id="gold" x1="0" y1="0" x2="0" y2="1">
    <stop offset="0" stop-color="#fff6c2"/><stop offset=".3" stop-color="#ffd84f"/>
    <stop offset=".62" stop-color="#e3a322"/><stop offset="1" stop-color="#96580d"/>
  </linearGradient>
  <linearGradient id="goldH" x1="0" y1="0" x2="1" y2="1">
    <stop offset="0" stop-color="#fff3b0"/><stop offset=".45" stop-color="#f7c63c"/><stop offset="1" stop-color="#a8660f"/>
  </linearGradient>
  <linearGradient id="ivory" x1="0" y1="1" x2="1" y2="0">
    <stop offset="0" stop-color="#cdb88d"/><stop offset=".35" stop-color="#f3ead3"/>
    <stop offset=".75" stop-color="#fffdf6"/><stop offset="1" stop-color="#ffffff"/>
  </linearGradient>
  <linearGradient id="ivoryShade" x1="0" y1="0" x2="1" y2="1">
    <stop offset="0" stop-color="#b89a63" stop-opacity="0"/><stop offset="1" stop-color="#8d6b35" stop-opacity=".75"/>
  </linearGradient>
  <radialGradient id="mouth" cx=".45" cy=".5" r=".6">
    <stop offset="0" stop-color="#2a1706"/><stop offset=".6" stop-color="#5c3810"/><stop offset="1" stop-color="#8a5a18"/>
  </radialGradient>
  <linearGradient id="rib" x1="0" y1="0" x2="1" y2="1">
    <stop offset="0" stop-color="#7cc0ff"/><stop offset=".5" stop-color="#1f63d8"/><stop offset="1" stop-color="#0b2a70"/>
  </linearGradient>
  <linearGradient id="rib2" x1="1" y1="0" x2="0" y2="1">
    <stop offset="0" stop-color="#7cc0ff"/><stop offset=".6" stop-color="#1f63d8"/><stop offset="1" stop-color="#0b2a70"/>
  </linearGradient>
  <radialGradient id="gem" cx=".35" cy=".3" r=".75">
    <stop offset="0" stop-color="#ffffff"/><stop offset=".25" stop-color="#ff8a8a"/><stop offset="1" stop-color="#d4141f"/>
  </radialGradient></defs>
  <g stroke="#4a2a10" stroke-width="3" stroke-linejoin="round">
    <!-- جسم القرن -->
    <path d="M36 110 C66 84 108 70 136 52 C150 43 158 30 162 12 C171 40 163 70 143 90 C121 111 99 128 82 160 Z" fill="url(#ivory)"/>
    <path d="M82 160 C99 128 121 111 143 90 C156 77 164 60 165 40 C160 72 140 96 116 116 C104 126 94 140 88 156 Z" fill="url(#ivoryShade)" stroke="none"/>
    <path d="M52 104 C82 84 116 72 140 56 C151 48 157 38 160 26" fill="none" stroke="#ffffff" stroke-width="4" stroke-linecap="round" opacity=".8"/>
    <!-- الحلقة الذهبية عند الفوهة -->
    <path d="M34 108 C44 100 58 96 68 100 C78 112 84 136 84 160 C74 166 56 168 46 162 Z" fill="url(#gold)"/>
    <ellipse cx="46" cy="137" rx="33" ry="17" transform="rotate(62 46 137)" fill="url(#goldH)"/>
    <ellipse cx="46" cy="137" rx="25" ry="11.5" transform="rotate(62 46 137)" fill="url(#mouth)" stroke-width="2"/>
    <path d="M60 99 C70 111 76 132 77 158" fill="none" stroke="#fff3b0" stroke-width="3" opacity=".8"/>
  </g>
  <!-- الشريطة -->
  <g stroke="#4a2a10" stroke-width="2.6" stroke-linejoin="round">
    <path d="M86 82 C92 80 100 78 106 76 C114 90 118 104 120 120 C112 124 106 127 100 130 C99 114 94 97 86 82 Z" fill="url(#rib)"/>
    <path d="M104 104 C80 70 56 64 50 78 C44 92 70 106 104 104 Z" fill="url(#rib2)"/>
    <path d="M104 104 C134 82 162 88 160 104 C158 120 130 118 104 104 Z" fill="url(#rib)"/>
    <path d="M104 104 C112 126 124 146 146 164 L156 150 C136 136 120 122 104 104 Z" fill="url(#rib)"/>
    <path d="M104 104 C100 128 102 150 112 176 L126 170 C116 148 112 128 104 104 Z" fill="url(#rib2)"/>
    <path d="M62 80 C74 82 88 92 98 102" fill="none" stroke="#7cc0ff" stroke-width="3" opacity=".9"/>
    <path d="M152 98 C140 96 124 98 110 104" fill="none" stroke="#7cc0ff" stroke-width="3" opacity=".9"/>
  </g>
  <circle cx="104" cy="104" r="11" fill="url(#gold)" stroke="#4a2a10" stroke-width="2.5"/>
  <circle cx="104" cy="104" r="7" fill="url(#gem)"/>
  <circle cx="101" cy="101" r="2.2" fill="#fff" opacity=".9"/></svg>
